
<svg  xmlns="http://www.w3.org/2000/svg">
  <symbol id="guia" width="30" height="32" viewBox="0 0 30 32">
    <path d="M394 3139 c-60 -17 -127 -73 -156 -129 l-28 -52 0 -1309 c0 -1161 2
-1314 16 -1347 19 -47 57 -87 114 -120 43 -26 53 -27 207 -30 l162 -4 3 -66
c3 -56 6 -67 21 -70 11 -2 68 29 134 73 l114 76 97 -62 c53 -34 105 -68 114
-76 9 -8 27 -13 40 -11 21 3 23 7 23 71 l0 67 544 0 c378 0 555 3 582 11 50
16 105 61 132 112 20 39 22 58 25 243 l3 202 58 6 c40 5 64 13 77 27 20 22 19
34 -30 414 -39 291 -42 252 40 511 37 120 81 263 150 499 l15 50 -65 119 c-36
66 -70 132 -77 148 -9 23 -23 31 -79 48 -37 11 -72 20 -78 20 -7 0 -12 69 -14
208 l-3 207 -31 55 c-22 38 -46 64 -79 85 l-48 30 -976 2 c-568 1 -989 -2
-1007 -8z m88 -15 c3 -3 -1 -19 -10 -37 l-16 -31 -8 26 c-5 15 -15 29 -21 31
-7 2 -4 3 5 2 10 -2 21 1 24 6 6 10 18 12 26 3z m1548 -4 c0 -4 -6 -15 -14
-25 -13 -18 -14 -18 -24 2 -6 11 -9 22 -7 25 6 6 45 4 45 -2z m200 -4 c0 -6 5
-4 10 4 5 8 10 10 10 5 0 -6 -5 -16 -11 -22 -7 -7 -11 -57 -10 -134 1 -71 -3
-130 -9 -139 -8 -11 -10 25 -8 121 1 95 -2 141 -10 151 -6 8 -10 17 -7 20 9 9
35 5 35 -6z m-1800 -1256 c0 -1240 0 -1240 -20 -1240 -32 0 -82 -24 -117 -58
l-33 -30 0 1201 c1 916 4 1208 13 1228 19 42 63 88 109 114 24 14 44 25 46 25
1 0 2 -558 2 -1240z m1550 5 l0 -1235 -747 0 -748 0 3 1235 2 1235 745 0 745
0 0 -1235z m213 -3 l2 -1232 -82 0 -83 0 0 1235 0 1236 80 -3 80 -3 3 -1233z
m183 1219 c40 -18 84 -65 98 -106 9 -26 9 -2195 0 -2220 -25 -71 -103 -124
-181 -125 l-43 0 0 1235 0 1235 43 0 c23 0 61 -9 83 -19z m84 -23 c0 -15 -15
-8 -28 12 -12 19 -11 20 8 8 11 -7 20 -16 20 -20z m-2174 -33 c-9 -9 -16 -13
-16 -8 0 12 22 34 28 28 2 -2 -3 -11 -12 -20z m1721 -1752 c-1 -329 -2 -63 -2
592 0 655 1 924 2 598 2 -325 2 -861 0 -1190z m-1547 1604 c-7 -72 -7 -72 -8
33 0 72 3 95 8 72 4 -19 4 -66 0 -105z m-200 103 c-6 -11 -13 -20 -16 -20 -2
0 0 9 6 20 6 11 13 20 16 20 2 0 0 -9 -6 -20z m1969 -372 c-1 -57 -4 -75 -9
-58 -12 37 -12 140 0 140 6 0 10 -34 9 -82z m305 -57 c17 -19 17 -20 -3 -31
-23 -12 -30 -3 -28 33 1 22 10 22 31 -2z m71 -60 c25 -6 29 -11 27 -32 -5 -33
-7 -34 -52 -20 -35 10 -40 15 -40 42 0 26 3 30 18 24 9 -4 31 -11 47 -14z m74
-7 c23 -29 27 -44 10 -44 -5 0 -7 5 -3 12 4 7 3 8 -5 4 -6 -4 -22 -28 -35 -54
-21 -41 -24 -44 -30 -24 -4 12 -12 20 -17 17 -5 -4 -9 -1 -9 5 0 7 8 9 19 5
36 -11 73 84 39 98 -9 4 -9 6 -1 6 6 1 21 -11 32 -25z m-167 -31 c1 -4 8 -13
17 -20 13 -10 14 -15 4 -32 -7 -12 -13 -53 -13 -93 0 -39 -2 -69 -4 -67 -10
10 -11 159 -1 159 6 0 6 3 -1 8 -6 4 -10 19 -10 34 0 24 7 33 8 11z m193 -75
c15 -29 36 -68 48 -87 14 -24 16 -32 6 -28 -8 3 -38 14 -67 23 -40 14 -51 22
-47 33 4 9 11 37 17 64 6 26 12 47 14 47 1 0 14 -24 29 -52z m-111 -44 c-24
-56 -19 -72 27 -85 30 -10 42 -10 48 -1 5 8 16 9 36 3 17 -5 24 -10 16 -10 -8
-1 -20 -9 -27 -18 -12 -16 -12 -16 -7 6 4 17 3 22 -5 17 -7 -4 -21 -39 -33
-79 -11 -40 -36 -122 -55 -182 -40 -131 -51 -180 -38 -172 6 3 11 -3 11 -14 1
-12 -3 -17 -9 -13 -6 4 -8 3 -5 -3 4 -6 -1 -35 -10 -64 -21 -67 -20 -64 -22
-91 l-2 -23 -10 24 c-5 13 -7 33 -3 44 3 11 6 58 6 106 -1 79 0 84 13 61 13
-22 14 11 15 266 l0 292 34 -16 c33 -15 34 -15 20 -48z m-364 -44 c0 -47 -4
-80 -10 -80 -5 0 -10 15 -10 34 0 40 11 126 16 126 2 0 4 -36 4 -80z m419 -17
c2 -1 -6 -1 -18 0 -11 1 -21 8 -21 15 0 12 3 12 18 1 9 -7 19 -14 21 -16z
m159 -27 c19 -32 19 -36 4 -48 -13 -11 -15 -11 -9 5 4 11 2 17 -8 17 -8 0 -15
5 -15 11 0 5 -5 7 -10 4 -6 -4 -5 5 2 19 6 14 12 26 14 26 1 0 11 -15 22 -34z
m-291 -278 c-1 -51 -3 -12 -3 87 0 99 2 141 3 93 2 -48 2 -129 0 -180z m256
235 c12 -4 16 -11 12 -22 -13 -31 -123 -387 -180 -581 -31 -107 -58 -199 -60
-205 -2 -5 -4 42 -4 105 -1 108 1 123 43 260 25 80 66 216 92 303 39 129 50
157 63 151 9 -3 24 -9 34 -11z m-256 -635 c-3 -8 -6 -5 -6 6 -1 11 2 17 5 13
3 -3 4 -12 1 -19z m-300 -95 c-2 -21 -4 -6 -4 32 0 39 2 55 4 38 2 -18 2 -50
0 -70z m300 -15 c-3 -7 -5 -2 -5 12 0 14 2 19 5 13 2 -7 2 -19 0 -25z m31 -76
c19 -12 21 -12 17 -1 -3 8 1 23 9 34 12 17 14 16 18 -23 2 -25 -1 -42 -7 -42
-7 0 -7 -3 0 -8 12 -9 16 -44 4 -36 -14 8 -11 -48 15 -246 13 -102 26 -205 28
-230 l3 -45 -47 -5 -48 -6 0 222 c0 174 3 229 15 257 20 49 18 67 -4 40 -10
-12 -22 -19 -25 -15 -4 3 -4 -1 0 -11 3 -9 2 -17 -4 -17 -11 0 -19 103 -13
160 3 31 5 32 10 11 4 -13 17 -31 29 -39z m-31 -164 c-3 -8 -6 -5 -6 6 -1 11
2 17 5 13 3 -3 4 -12 1 -19z m0 -50 c-3 -7 -5 -2 -5 12 0 14 2 19 5 13 2 -7 2
-19 0 -25z m0 -50 c-3 -7 -5 -2 -5 12 0 14 2 19 5 13 2 -7 2 -19 0 -25z m0
-85 c-3 -10 -5 -2 -5 17 0 19 2 27 5 18 2 -10 2 -26 0 -35z m-288 -207 c-1
-53 -5 -83 -10 -75 -5 8 -8 64 -8 124 1 84 3 102 10 75 5 -19 8 -75 8 -124z
m-1772 -18 c-2 -29 -3 -6 -3 52 0 58 1 81 3 53 2 -29 2 -77 0 -105z m2060 50
c-2 -13 -4 -5 -4 17 -1 22 1 32 4 23 2 -10 2 -28 0 -40z m21 -100 c9 -11 11
-18 4 -18 -15 0 -34 -73 -25 -95 4 -12 -1 -23 -13 -33 -12 -9 -13 -13 -4 -10
11 4 16 -2 16 -23 1 -24 -1 -27 -12 -18 -8 6 -11 15 -8 20 9 16 -19 5 -53 -18
-47 -34 -47 -28 0 16 23 22 39 43 35 47 -4 4 -20 -7 -35 -23 -38 -40 -84 -63
-144 -70 -45 -5 -49 -4 -49 16 0 18 6 21 38 21 54 0 125 26 153 57 l24 26 -40
-20 c-47 -25 -94 -41 -115 -41 -8 0 -30 -1 -47 -3 -28 -3 -33 -7 -33 -31 0
-16 8 -33 21 -42 20 -14 19 -14 -24 -13 -45 2 -45 2 -28 22 27 32 14 72 -22
66 -5 -1 -5 3 -2 9 4 6 13 9 21 6 8 -3 13 -2 13 2 -4 22 2 42 12 42 6 0 8 -7
5 -16 -3 -8 -2 -13 3 -9 5 3 11 0 13 -6 6 -18 78 -19 122 -2 45 17 136 107
136 135 0 9 3 24 7 34 5 14 8 15 11 3 3 -7 11 -22 20 -31z m126 17 c-4 -8 -11
-15 -16 -15 -6 0 -5 6 2 15 7 8 14 15 16 15 2 0 1 -7 -2 -15z m-2194 -50 c0
-8 -4 -15 -10 -15 -5 0 -10 7 -10 15 0 8 5 15 10 15 6 0 10 -7 10 -15z m1760
-45 c0 -11 -4 -20 -9 -20 -5 0 -7 9 -4 20 3 11 7 20 9 20 2 0 4 -9 4 -20z
m-1760 0 c0 -5 -2 -10 -4 -10 -3 0 -8 5 -11 10 -3 6 -1 10 4 10 6 0 11 -4 11
-10z m-3 -36 c-3 -4 0 -13 8 -20 10 -10 49 -15 144 -16 72 -2 131 -7 131 -11
0 -9 -309 -6 -315 3 -5 8 23 50 32 50 4 0 4 -3 0 -6z m1548 -13 c-5 -9 32 -27
48 -23 5 1 5 -2 2 -8 -4 -6 -12 -9 -18 -7 -17 5 -37 -18 -37 -42 0 -14 10 -25
31 -34 28 -11 11 -13 -137 -15 -93 -2 -166 -1 -163 2 2 3 57 6 122 7 73 1 120
5 125 13 12 15 8 59 -6 64 -7 2 -12 8 -12 13 0 6 4 8 9 5 5 -3 11 3 14 14 3
11 10 20 17 20 6 0 9 -4 5 -9z m-761 -32 c-3 -5 -14 -9 -25 -9 -10 0 -19 4
-19 9 0 5 11 9 25 9 13 0 22 -4 19 -9z m114 4 c-15 -2 -42 -2 -60 0 -18 2 -6
4 27 4 33 0 48 -2 33 -4z m589 -7 c9 -9 -190 -7 -204 2 -6 4 36 6 94 6 57 -1
107 -5 110 -8z m188 4 c3 -5 2 -10 -4 -10 -5 0 -13 5 -16 10 -3 6 -2 10 4 10
5 0 13 -4 16 -10z m-1342 -7 c-7 -2 -19 -2 -25 0 -7 3 -2 5 12 5 14 0 19 -2
13 -5z m80 0 c-13 -2 -33 -2 -45 0 -13 2 -3 4 22 4 25 0 35 -2 23 -4z m250 0
c-40 -2 -107 -2 -150 0 -43 1 -10 3 72 3 83 0 118 -2 78 -3z m-896 -35 c-3 -7
-5 -2 -5 12 0 14 2 19 5 13 2 -7 2 -19 0 -25z m113 7 c-7 -9 -15 -13 -19 -10
-3 3 1 10 9 15 21 14 24 12 10 -5z m1630 -10 l0 -25 -785 0 -784 0 -36 -31
c-67 -60 -68 -158 0 -218 44 -38 72 -43 218 -39 111 3 117 2 117 -17 0 -19 -5
-20 -162 -15 -149 5 -166 7 -195 28 -102 72 -120 175 -47 262 58 69 5 64 879
70 435 3 791 6 793 8 1 1 2 -9 2 -23z m216 -2 c-2 -15 -16 -18 -84 -21 -77 -3
-82 -2 -82 18 0 19 6 20 84 20 75 0 84 -2 82 -17z m288 -55 c-3 -33 -11 -73
-19 -88 -17 -33 -78 -88 -112 -101 -14 -5 -253 -9 -561 -9 l-537 0 0 90 0 90
545 0 545 0 50 24 c28 12 56 30 64 39 24 29 30 19 25 -45z m-2217 25 c15 -10
24 -13 20 -6 -4 6 -3 14 3 18 5 3 10 0 10 -8 0 -17 -24 -39 -33 -32 -4 3 -5 2
-2 -1 6 -9 -14 -44 -25 -44 -6 0 -10 20 -10 45 0 25 2 45 5 45 3 0 18 -8 32
-17z m977 -13 c28 0 28 0 7 -17 -17 -15 -21 -32 -24 -93 l-3 -75 -2 76 c-1 49
-7 81 -15 87 -9 7 -87 12 -219 12 -225 2 -247 -3 -241 -49 3 -25 3 -25 -6 2
-5 16 -15 34 -21 42 -16 20 -5 20 259 17 130 -1 249 -2 265 -2z m-737 -6 c-3
-3 -12 -4 -19 -1 -8 3 -5 6 6 6 11 1 17 -2 13 -5z m151 -1 c-27 -2 -69 -2 -95
0 -27 2 -5 3 47 3 52 0 74 -1 48 -3z m775 0 c-29 -2 -77 -2 -105 0 -29 2 -6 3
52 3 58 0 81 -1 53 -3z m694 1 c-3 -3 -12 -4 -19 -1 -8 3 -5 6 6 6 11 1 17 -2
13 -5z m190 0 c-3 -3 -12 -4 -19 -1 -8 3 -5 6 6 6 11 1 17 -2 13 -5z m-1929
-38 c-13 -13 -25 -22 -27 -20 -6 5 30 44 41 44 5 0 -2 -11 -14 -24z m322 -76
l0 -90 -134 0 c-130 0 -135 1 -165 26 -24 20 -31 34 -31 62 0 42 5 52 40 75
20 14 49 17 157 17 l133 0 0 -90z m490 -111 l0 -201 -37 30 c-71 54 -162 112
-178 112 -16 0 -153 -87 -192 -123 l-23 -20 0 201 0 202 215 0 215 0 0 -201z
m-955 152 c3 -5 1 -12 -5 -16 -5 -3 -10 1 -10 9 0 18 6 21 15 7z m2269 -55
c-1 -12 -3 -28 -3 -37 -1 -8 -8 -24 -17 -35 -15 -19 -16 -19 -9 1 3 11 -10 1
-30 -23 -65 -76 -31 -72 -639 -72 -472 -1 -591 -5 -547 -22 5 -1 -4 -15 -20
-29 l-29 -27 0 42 c1 37 2 39 15 23 13 -18 14 -17 17 13 l3 32 521 -1 c342 -1
537 2 569 9 54 12 99 41 117 73 10 20 10 21 -6 8 -9 -8 -19 -11 -23 -7 -4 3 2
13 14 21 11 8 28 31 38 52 15 32 19 35 25 19 3 -11 5 -29 4 -40z m-1767 12
c-3 -7 -5 -2 -5 12 0 14 2 19 5 13 2 -7 2 -19 0 -25z m-356 -80 c26 -34 28
-39 9 -23 -29 24 -49 47 -50 58 0 14 9 6 41 -35z m357 -84 c1 -83 -1 -94 -12
-78 -14 18 -14 39 -1 80 5 15 0 23 -22 34 -27 13 -27 14 -6 18 12 2 25 12 28
23 4 10 8 19 10 19 1 0 3 -43 3 -96z m1667 68 c-3 -3 -11 0 -18 7 -9 10 -8 11
6 5 10 -3 15 -9 12 -12z m-1154 -9 c34 -18 34 -18 8 -21 -15 -2 -31 -12 -37
-25 -9 -19 -11 -17 -11 21 -1 23 1 42 2 42 2 0 19 -8 38 -17z m-981 -3 c0 -5
-2 -10 -4 -10 -3 0 -8 5 -11 10 -3 6 -1 10 4 10 6 0 11 -4 11 -10z m237 -6
c-3 -3 -12 -4 -19 -1 -8 3 -5 6 6 6 11 1 17 -2 13 -5z m1913 -58 c0 -2 -7 -7
-16 -10 -8 -3 -12 -2 -9 4 6 10 25 14 25 6z m-2003 -32 c-3 -3 -12 -4 -19 -1
-8 3 -5 6 6 6 11 1 17 -2 13 -5z m288 -4 c3 -6 -4 -10 -17 -10 -18 0 -20 2 -8
10 19 12 18 12 25 0z m300 0 c3 -6 -1 -7 -9 -4 -18 7 -21 14 -7 14 6 0 13 -4
16 -10z m345 0 c0 -5 -2 -10 -4 -10 -3 0 -8 5 -11 10 -3 6 -1 10 4 10 6 0 11
-4 11 -10z m915 0 c3 -5 1 -10 -4 -10 -6 0 -11 5 -11 10 0 6 2 10 4 10 3 0 8
-4 11 -10z m-1782 -7 c-7 -2 -19 -2 -25 0 -7 3 -2 5 12 5 14 0 19 -2 13 -5z
m70 0 c-7 -2 -21 -2 -30 0 -10 3 -4 5 12 5 17 0 24 -2 18 -5z m367 -7 c0 -2
-17 -16 -37 -31 l-38 -26 35 30 c34 31 40 35 40 27z m-155 -93 c15 -9 15 -11
1 -22 -9 -8 -16 -10 -16 -5 0 5 -4 3 -9 -4 -5 -8 -8 6 -9 35 -1 37 1 43 8 26
5 -12 16 -25 25 -30z m376 20 c13 -16 12 -17 -3 -4 -17 13 -22 21 -14 21 2 0
10 -8 17 -17z m75 -39 l-1 -21 -27 20 c-16 12 -28 21 -28 21 0 1 13 1 29 1 23
0 28 -4 27 -21z"/>
<path d="M1215 2053 c-94 -130 -170 -246 -170 -258 0 -19 7 -20 98 -23 l97 -3
0 -160 c0 -139 2 -160 16 -166 19 -7 17 -9 139 162 44 62 113 159 153 215 40
56 72 110 70 119 -3 13 -20 16 -101 19 l-98 3 2 154 c1 155 -2 175 -24 175 -7
0 -89 -107 -182 -237z m190 147 c0 -60 -8 -78 -18 -40 -7 28 -34 25 -62 -7
-13 -16 -25 -25 -25 -21 0 5 16 26 36 48 20 22 34 43 31 46 -7 8 14 33 28 34
6 0 10 -26 10 -60z m-23 -288 c9 -10 31 -13 85 -10 40 2 73 2 73 1 0 -1 -21
-30 -47 -65 -27 -35 -82 -112 -123 -171 l-75 -108 -5 133 -5 133 -82 3 -82 3
58 77 c31 42 86 119 122 170 l64 94 3 -123 c2 -75 7 -128 14 -137z m23 64 l-2
-41 90 0 c58 0 92 -4 94 -11 6 -17 -27 -26 -44 -12 -8 6 -44 12 -81 13 l-67 2
-2 64 c-1 37 1 56 5 45 5 -10 7 -37 7 -60z m-195 14 c-11 -16 -26 -33 -33 -36
-7 -4 -5 1 4 12 9 10 19 27 22 37 4 9 11 17 17 17 6 0 2 -13 -10 -30z m-50
-69 c-10 -20 -30 -37 -30 -27 0 6 33 46 38 46 1 0 -2 -9 -8 -19z m-30 -45 c0
-3 -4 -8 -10 -11 -5 -3 -10 -1 -10 4 0 6 5 11 10 11 6 0 10 -2 10 -4z m403
-33 c-4 -10 -16 -30 -29 -45 -12 -15 -24 -33 -27 -40 -2 -7 -8 -10 -12 -6 -4
4 -1 14 6 22 32 35 37 44 31 52 -4 4 -2 4 4 1 7 -4 14 2 17 13 3 11 8 20 11
20 3 0 2 -8 -1 -17z m-365 -33 c67 0 47 -8 -31 -13 -70 -3 -79 3 -50 35 17 19
18 19 27 -1 7 -17 18 -21 54 -21z m102 -13 c0 -21 -12 -28 -27 -16 -19 16 -16
29 7 29 11 0 20 -6 20 -13z m190 -67 c0 -5 -2 -10 -4 -10 -3 0 -8 5 -11 10 -3
6 -1 10 4 10 6 0 11 -4 11 -10z m-34 -42 c-9 -12 -16 -17 -16 -10 0 14 23 42
29 37 1 -2 -4 -14 -13 -27z m-159 -30 c-2 -13 -4 -5 -4 17 -1 22 1 32 4 23 2
-10 2 -28 0 -40z m117 -32 c-3 -9 -10 -16 -15 -16 -6 0 -5 9 1 21 13 24 24 20
14 -5z m-90 -76 c8 0 19 7 26 15 7 8 17 15 23 15 6 0 4 -6 -5 -12 -9 -7 -25
-29 -35 -49 -14 -27 -23 -35 -34 -29 -11 6 -13 24 -10 77 l4 68 9 -42 c5 -24
15 -43 22 -43z"/>
<path d="M2311 1364 c0 -11 3 -14 6 -6 3 7 2 16 -1 19 -3 4 -6 -2 -5 -13z"/>
<path d="M2499 713 c-13 -16 -12 -17 4 -4 16 13 21 21 13 21 -2 0 -10 -8 -17
-17z"/>
<path d="M2385 461 c-26 -14 -93 -17 -550 -21 l-520 -5 512 -3 c489 -2 513 -1
557 18 25 10 46 22 46 25 0 8 -12 4 -45 -14z"/>
<path d="M1303 370 c0 -30 2 -43 4 -27 2 15 2 39 0 55 -2 15 -4 2 -4 -28z"/>
<path d="M439 437 c4 -4 64 -6 132 -5 l124 3 -132 5 c-73 3 -129 1 -124 -3z"/>
<path d="M791 444 c0 -11 3 -14 6 -6 3 7 2 16 -1 19 -3 4 -6 -2 -5 -13z"/>
<path d="M820 439 c0 -5 70 -9 165 -9 105 0 165 4 165 10 0 7 -59 10 -165 9
-94 0 -165 -4 -165 -10z"/>
</symbol>
</svg>
